C:\Users\r0593348\3dpredictsim\Results\Batchsim_tmt_linear\Pog_s1_tmt_aCst_d02_k800_ig24_pas_GRF.mot
nRows=30
nColumns=19

name C:\Users\r0593348\3dpredictsim\Results\Batchsim_tmt_linear\Pog_s1_tmt_aCst_d02_k800_ig24_pas_GRF.mot
datacolumns 19
datarows 30
range 0.0000000000 0.3208127264
endheader
time 	ground_force_vx	ground_force_vy	ground_force_vz	ground_force_px	ground_force_py	ground_force_pz	1_ground_force_vx	1_ground_force_vy	1_ground_force_vz	1_ground_force_px	1_ground_force_py	1_ground_force_pz	ground_torque_x	ground_torque_y	ground_torque_z	1_ground_torque_x	1_ground_torque_y	1_ground_torque_z
        0.0000000000	      -89.8666490853	       83.4973069384	       38.5374152579	        0.1756600931	        0.0000000000	        0.0381506287	       96.1372842837	      511.8096876218	       -4.1832652334	       -0.3135938965	        0.0000000000	       -0.0369617328	        0.0000000000	        0.0000000000	        0.0000000000	        0.0000000000	        0.0000000000	        0.0000000000	
        0.0110625078	      -82.5517431559	      177.3920806760	       77.4093982782	        0.1816931686	        0.0000000000	        0.0364814840	       79.6466000995	      432.3308019792	       -8.8690463676	       -0.3102189731	        0.0000000000	       -0.0361324646	        0.0000000000	        0.0000000000	        0.0000000000	        0.0000000000	        0.0000000000	        0.0000000000	
        0.0221250156	      -37.8546717426	      318.7887317685	       17.0290144723	        0.1852375501	        0.0000000000	        0.0344210795	       63.4766385460	      348.6912680524	       -7.4938533984	       -0.3052208479	        0.0000000000	       -0.0344668607	        0.0000000000	        0.0000000000	        0.0000000000	        0.0000000000	        0.0000000000	        0.0000000000	
        0.0331875234	      -38.0305293828	      452.8778772144	        0.0644730291	        0.1885849205	        0.0000000000	        0.0347157429	       42.0478203921	      258.3900624902	       -4.8269515316	       -0.2971047666	        0.0000000000	       -0.0312842985	        0.0000000000	        0.0000000000	        0.0000000000	        0.0000000000	        0.0000000000	        0.0000000000	
        0.0442500312	      -71.7523941202	      609.9303390976	       -5.2622825486	        0.1962359059	        0.0000000000	        0.0371035030	       19.1638744829	      170.0184028988	       -8.6740247166	       -0.2826868857	        0.0000000000	       -0.0249551787	        0.0000000000	        0.0000000000	        0.0000000000	        0.0000000000	        0.0000000000	        0.0000000000	
        0.0553125390	      -96.7319757381	      734.9524510739	       -9.4441109337	        0.2026065534	        0.0000000000	        0.0390200790	        3.6047430200	      132.6681660067	      -13.2042522351	       -0.2760144856	        0.0000000000	       -0.0215629915	        0.0000000000	        0.0000000000	        0.0000000000	        0.0000000000	        0.0000000000	        0.0000000000	
        0.0663750468	     -105.0470371534	      794.7410491109	      -11.5141285484	        0.2070792421	        0.0000000000	        0.0402394054	        1.5778998826	      101.6787001403	      -13.5620406956	       -0.2754671162	        0.0000000000	       -0.0216332644	        0.0000000000	        0.0000000000	        0.0000000000	        0.0000000000	        0.0000000000	        0.0000000000	
        0.0774375546	     -102.4382612093	      805.6203756115	      -12.1251662555	        0.2104115532	        0.0000000000	        0.0410095784	       -2.3793899554	       65.7163391006	      -12.1043275901	       -0.2749764913	        0.0000000000	       -0.0216503582	        0.0000000000	        0.0000000000	        0.0000000000	        0.0000000000	        0.0000000000	        0.0000000000	
        0.0885000625	      -95.5128532002	      794.9720642171	      -12.3212313342	        0.2133481859	        0.0000000000	        0.0414787467	       -7.9119583466	       26.9090353334	       -5.9378302329	       -0.2752669092	        0.0000000000	       -0.0213005746	        0.0000000000	        0.0000000000	        0.0000000000	        0.0000000000	        0.0000000000	        0.0000000000	
        0.0995625703	      -86.3810592576	      780.7529137860	      -13.2399426335	        0.2165032206	        0.0000000000	        0.0417190352	        0.0897025959	       -0.0879680389	        0.0020949354	        0.0000000000	        0.0000000000	        0.0000000000	        0.0000000000	        0.0000000000	        0.0000000000	        0.0000000000	        0.0000000000	        0.0000000000	
        0.1106250781	      -75.0229432016	      758.6332443965	      -14.2038431053	        0.2198125892	        0.0000000000	        0.0418470285	        0.0001630944	       -0.0001306259	       -0.0000088801	        0.0000000000	        0.0000000000	        0.0000000000	        0.0000000000	        0.0000000000	        0.0000000000	        0.0000000000	        0.0000000000	        0.0000000000	
        0.1216875859	      -65.0821095133	      733.2086065443	      -14.7000056786	        0.2238087895	        0.0000000000	        0.0418875777	        0.0000762441	       -0.0000529832	       -0.0000055111	        0.0000000000	        0.0000000000	        0.0000000000	        0.0000000000	        0.0000000000	        0.0000000000	        0.0000000000	        0.0000000000	        0.0000000000	
        0.1327500937	      -56.4633157495	      708.1801726631	      -15.1921781754	        0.2283940835	        0.0000000000	        0.0418242698	        0.0008126015	       -0.0005059387	       -0.0000654598	        0.0000000000	        0.0000000000	        0.0000000000	        0.0000000000	        0.0000000000	        0.0000000000	        0.0000000000	        0.0000000000	        0.0000000000	
        0.1438126015	      -47.7979602863	      681.9324262326	      -15.8084659781	        0.2330145976	        0.0000000000	        0.0417761005	        0.0029186739	       -0.0016648604	       -0.0002494734	        0.0000000000	        0.0000000000	        0.0000000000	        0.0000000000	        0.0000000000	        0.0000000000	        0.0000000000	        0.0000000000	        0.0000000000	
        0.1548751093	      -39.7063248378	      656.5303397198	      -16.3470890059	        0.2375742330	        0.0000000000	        0.0417836811	       -0.0305032337	        0.0161787936	        0.0027139525	        0.0000000000	        0.0000000000	        0.0000000000	        0.0000000000	        0.0000000000	        0.0000000000	        0.0000000000	        0.0000000000	        0.0000000000	
        0.1659376171	      -32.6874531509	      634.0162302692	      -16.7691879327	        0.2420695660	        0.0000000000	        0.0418355136	       -0.0207634895	        0.0103557372	        0.0019014349	        0.0000000000	        0.0000000000	        0.0000000000	        0.0000000000	        0.0000000000	        0.0000000000	        0.0000000000	        0.0000000000	        0.0000000000	
        0.1770001249	      -26.6199344641	      615.2974784767	      -17.2725441958	        0.2466325796	        0.0000000000	        0.0419085010	       -0.0150854097	        0.0071390937	        0.0014090204	        0.0000000000	        0.0000000000	        0.0000000000	        0.0000000000	        0.0000000000	        0.0000000000	        0.0000000000	        0.0000000000	        0.0000000000	
        0.1880626327	      -21.6284838064	      601.1504193545	      -17.4987553432	        0.2515079854	        0.0000000000	        0.0419811307	       -0.0143447766	        0.0064899726	        0.0013527237	        0.0000000000	        0.0000000000	        0.0000000000	        0.0000000000	        0.0000000000	        0.0000000000	        0.0000000000	        0.0000000000	        0.0000000000	
        0.1991251405	      -18.0702321958	      591.5800553347	      -17.5412330378	        0.2567108487	        0.0000000000	        0.0420249180	       -0.0182470786	        0.0079398038	        0.0017226654	        0.0000000000	        0.0000000000	        0.0000000000	        0.0000000000	        0.0000000000	        0.0000000000	        0.0000000000	        0.0000000000	        0.0000000000	
        0.2101876483	      -15.4420556310	      585.7717781379	      -17.5623590943	        0.2621855498	        0.0000000000	        0.0420228635	       -0.0296509765	        0.0124690326	        0.0027804639	        0.0000000000	        0.0000000000	        0.0000000000	        0.0000000000	        0.0000000000	        0.0000000000	        0.0000000000	        0.0000000000	        0.0000000000	
        0.2212501561	      -14.1702763030	      583.0314995292	      -17.6333548901	        0.2678894514	        0.0000000000	        0.0419717090	       -0.0570401485	        0.0232844833	        0.0052920712	        0.0000000000	        0.0000000000	        0.0000000000	        0.0000000000	        0.0000000000	        0.0000000000	        0.0000000000	        0.0000000000	        0.0000000000	
        0.2323126639	      -13.5744030776	      582.2329948595	      -17.6142062721	        0.2736295083	        0.0000000000	        0.0418831977	       -0.1191329607	        0.0474001684	        0.0109089834	        0.0000000000	        0.0000000000	        0.0000000000	        0.0000000000	        0.0000000000	        0.0000000000	        0.0000000000	        0.0000000000	        0.0000000000	
        0.2433751717	      -12.5555350514	      582.2664580506	      -17.6896089549	        0.2794405571	        0.0000000000	        0.0417614775	       -0.2490470529	        0.0969517673	        0.0224805152	        0.0000000000	        0.0000000000	        0.0000000000	        0.0000000000	        0.0000000000	        0.0000000000	        0.0000000000	        0.0000000000	        0.0000000000	
        0.2544376795	      -11.3819059865	      581.9118891482	      -17.6849366346	        0.2852543865	        0.0000000000	        0.0416179382	       -0.4852541098	        0.1855282048	        0.0431184617	        0.0000000000	        0.0000000000	        0.0000000000	        0.0000000000	        0.0000000000	        0.0000000000	        0.0000000000	        0.0000000000	        0.0000000000	
        0.2655001874	       -9.8990654467	      580.5721606333	      -17.4752859401	        0.2909941028	        0.0000000000	        0.0414646186	       -0.8371014651	        0.3154648185	        0.0730514759	        0.0000000000	        0.0000000000	        0.0000000000	        0.0000000000	        0.0000000000	        0.0000000000	        0.0000000000	        0.0000000000	        0.0000000000	
        0.2765626952	       -7.9092265553	      577.4984883266	      -17.3462917099	        0.2965970323	        0.0000000000	        0.0413083225	       -1.2469707521	        0.4647032531	        0.1063330670	        0.0000000000	        0.0000000000	        0.0000000000	        0.0000000000	        0.0000000000	        0.0000000000	        0.0000000000	        0.0000000000	        0.0000000000	
        0.2876252030	       -5.3177562990	      572.4213332464	      -16.9130600306	        0.3021300036	        0.0000000000	        0.0411492081	       -1.6085356092	        0.5942793984	        0.1328804954	        0.0000000000	        0.0000000000	        0.0000000000	        0.0000000000	        0.0000000000	        0.0000000000	        0.0000000000	        0.0000000000	        0.0000000000	
        0.2986877108	       -2.1485203192	      565.8821547318	      -15.8404547239	        0.3077150258	        0.0000000000	        0.0409784325	       -1.8396530454	        0.6748756169	        0.1453307510	        0.0000000000	        0.0000000000	        0.0000000000	        0.0000000000	        0.0000000000	        0.0000000000	        0.0000000000	        0.0000000000	        0.0000000000	
        0.3097502186	        1.7975511425	      558.4773944251	      -14.4493540094	        0.3133659967	        0.0000000000	        0.0407880649	       -1.8934916657	        0.6905961896	        0.1399563862	        0.0000000000	        0.0000000000	        0.0000000000	        0.0000000000	        0.0000000000	        0.0000000000	        0.0000000000	        0.0000000000	        0.0000000000	
        0.3208127264	        5.4999261473	      551.5951378778	      -12.6544169539	        0.3190394699	        0.0000000000	        0.0405781412	       -1.7574207620	        0.6379597982	        0.1179590382	        0.0000000000	        0.0000000000	        0.0000000000	        0.0000000000	        0.0000000000	        0.0000000000	        0.0000000000	        0.0000000000	        0.0000000000	
